<svg width="35" height="31" viewBox="0 0 35 31" fill="none" xmlns="http://www.w3.org/2000/svg">
<path d="M7.875 29.0625C3.52734 29.0625 0 25.1572 0 20.3438C0 16.5414 2.19844 13.3082 5.26094 12.1154C5.25547 11.952 5.25 11.7885 5.25 11.625C5.25 6.27266 9.16562 1.9375 14 1.9375C17.243 1.9375 20.0703 3.88711 21.5852 6.79336C22.4164 6.17578 23.4227 5.8125 24.5 5.8125C27.3984 5.8125 29.75 8.41602 29.75 11.625C29.75 12.3637 29.6242 13.066 29.4 13.7199C32.5938 14.4344 35 17.5646 35 21.3125C35 25.5932 31.8664 29.0625 28 29.0625H7.875ZM12.1953 15.9238C11.6812 16.493 11.6812 17.4133 12.1953 17.9764C12.7094 18.5395 13.5406 18.5455 14.0492 17.9764L16.182 15.615L16.1875 23.7344C16.1875 24.5396 16.7727 25.1875 17.5 25.1875C18.2273 25.1875 18.8125 24.5396 18.8125 23.7344V15.615L20.9453 17.9764C21.4594 18.5455 22.2906 18.5455 22.7992 17.9764C23.3078 17.4072 23.3133 16.4869 22.7992 15.9238L18.4242 11.0801C17.9102 10.5109 17.0789 10.5109 16.5703 11.0801L12.1953 15.9238Z" fill="#394867"/>
</svg>