<svg width="450" height="121" viewBox="0 0 450 121" fill="none" xmlns="http://www.w3.org/2000/svg">
<path d="M50.8312 72.5185C46.4549 72.5185 43.0434 71.4173 40.5967 69.2149C38.1476 67.0103 36.9231 63.7726 36.9231 59.4997C36.9231 55.2268 38.1476 51.9398 40.5967 49.7375C43.0457 47.5351 46.4572 46.4339 50.8312 46.4339H63.0742C65.9477 46.4339 68.1439 47.121 69.6607 48.4951C71.1798 49.8692 71.9382 51.8315 71.9382 54.3821C71.9382 59.5821 68.9835 62.1821 63.0742 62.1821H44.5625C45.2489 65.262 47.3362 66.8032 50.8312 66.8032H70.6649V72.5161H50.8312V72.5185ZM50.8312 52.1468C47.4684 52.1468 45.3951 53.5868 44.6112 56.4692H62.731C63.3826 56.4692 63.8975 56.2716 64.2732 55.8739C64.6489 55.4763 64.8368 54.9304 64.8368 54.2339C64.8368 52.8433 64.1341 52.1468 62.731 52.1468H50.8312Z" fill="#0F0222"/>
<path d="M76.8084 72.5179L74.4081 46.93H81.5585L83.2231 66.358L90.8139 62.8804V46.93H97.9154V62.9298L105.506 66.358L107.172 46.93H114.322L111.921 72.5179H105.212L94.3392 67.6498L83.5154 72.5179H76.8061H76.8084Z" fill="#0F0222"/>
<path d="M121.868 72.5177H114.696L127.9 46.9179H135.071L121.868 72.5177Z" fill="#6200FE"/>
<path d="M141.085 72.5177H148.256L135.053 46.9179H127.882L141.085 72.5177Z" fill="#0F0222"/>
<path d="M377.09 72.5177H369.919L383.122 46.9179H390.293L377.09 72.5177Z" fill="#6200FE"/>
<path d="M396.308 72.5177H403.478L390.275 46.9179H383.105L396.308 72.5177Z" fill="#0F0222"/>
<path d="M150.874 72.5157V46.9277H172.862C175.735 46.9277 177.832 47.6477 179.154 49.09C180.476 50.53 181.137 52.4265 181.137 54.7794V72.5181H174.035V55.6241C174.035 53.6358 173.057 52.6429 171.097 52.6429H157.973V72.5181H150.872L150.874 72.5157Z" fill="#0F0222"/>
<path d="M198.031 72.518C193.655 72.518 190.243 71.4239 187.796 69.238C185.347 67.0522 184.122 63.8899 184.122 59.7487C184.122 55.6076 185.347 52.3959 187.796 50.21C190.245 48.0241 193.657 46.93 198.031 46.93H214.437V52.6429H198.031C195.908 52.6429 194.285 53.2311 193.158 54.4076C192.031 55.5841 191.468 57.3629 191.468 59.7487C191.468 62.1346 192.031 63.864 193.158 65.0404C194.285 66.2169 195.908 66.8051 198.031 66.8051H214.926V72.518H198.031ZM209.052 72.518V36.9936H216.153V72.518H209.052Z" fill="#0F0222"/>
<path d="M265.552 72.518C261.175 72.518 257.764 71.4239 255.317 69.238C252.868 67.0522 251.644 63.8899 251.644 59.7487C251.644 55.6076 252.868 52.3959 255.317 50.21C257.766 48.0241 261.178 46.93 265.552 46.93H281.958V52.6429H265.552C263.43 52.6429 261.806 53.2311 260.679 54.4076C259.552 55.5841 258.988 57.3629 258.988 59.7487C258.988 62.1346 259.552 63.864 260.679 65.0404C261.806 66.2169 263.43 66.8051 265.552 66.8051H282.447V72.518H265.552ZM276.572 72.518V36.9936H283.674V72.518H276.572Z" fill="#0F0222"/>
<path d="M219.141 72.5178V67.252L239.023 52.6451H219.973V46.9322H249.406V52.198L229.524 66.8049H249.406V72.5178H219.141Z" fill="#0F0222"/>
<path d="M331.619 42.7063V37.0922H338.818V42.7063H331.619ZM331.668 72.5178V46.9298H338.77V72.5178H331.668Z" fill="#0F0222"/>
<path d="M286.662 42.7063V37.0922H293.861V42.7063H286.662ZM286.71 72.5178V46.9298H293.812V72.5178H286.71Z" fill="#0F0222"/>
<path d="M303.803 77.9541H318.592C320.552 77.9541 321.531 76.9419 321.531 74.9231V72.4879H310.756C306.38 72.4879 302.968 71.3938 300.522 69.2079C298.072 67.022 296.848 63.8597 296.848 59.7186C296.848 55.5774 298.072 52.3656 300.522 50.1798C302.971 47.9939 306.382 46.8998 310.756 46.8998H328.632V75.8172C328.632 78.1675 327.962 80.0642 326.624 81.5062C325.286 82.9466 323.196 83.6688 320.355 83.6688H303.803V77.9541ZM310.758 66.775H321.533V52.6151H310.758C308.636 52.6151 307.013 53.2033 305.886 54.3798C304.758 55.5563 304.195 57.335 304.195 59.7209C304.195 62.1068 304.758 63.8361 305.886 65.0126C307.013 66.1891 308.636 66.7773 310.758 66.7773V66.775Z" fill="#0F0222"/>
<path d="M357.004 72.5181C354.162 72.5181 352.073 71.7981 350.735 70.3557C349.397 68.9157 348.726 67.0193 348.726 64.6663V52.6429H341.43V46.93H348.726V39.0807H355.828V46.93H366.308V52.6429H355.828V63.7722C355.828 65.7934 356.806 66.8028 358.766 66.8028H367.678V72.5157H357.004V72.5181Z" fill="#0F0222"/>
<path d="M406.094 72.518V36.9936H413.195V72.518H406.094Z" fill="#0F0222"/>
</svg>