<svg width="29" height="31" viewBox="0 0 29 31" fill="none" xmlns="http://www.w3.org/2000/svg">
<path d="M23.5637 12.6857C23.5637 15.3748 22.7197 17.8588 21.2979 19.8741L28.469 27.2969C29.177 28.0292 29.177 29.2184 28.469 29.9508C27.7609 30.6831 26.6111 30.6831 25.903 29.9508L18.732 22.528C16.7834 24.0044 14.3818 24.8714 11.7818 24.8714C5.2735 24.8714 0 19.4172 0 12.6857C0 5.95428 5.2735 0.5 11.7818 0.5C18.2901 0.5 23.5637 5.95428 23.5637 12.6857ZM11.7818 21.122C12.853 21.122 13.9136 20.9038 14.9032 20.4798C15.8928 20.0558 16.792 19.4344 17.5494 18.6511C18.3069 17.8677 18.9077 16.9377 19.3176 15.9141C19.7275 14.8906 19.9385 13.7936 19.9385 12.6857C19.9385 11.5778 19.7275 10.4808 19.3176 9.4573C18.9077 8.43376 18.3069 7.50375 17.5494 6.72038C16.792 5.937 15.8928 5.31559 14.9032 4.89162C13.9136 4.46766 12.853 4.24945 11.7818 4.24945C10.7107 4.24945 9.65002 4.46766 8.66041 4.89162C7.6708 5.31559 6.77162 5.937 6.0142 6.72038C5.25679 7.50375 4.65597 8.43376 4.24606 9.4573C3.83615 10.4808 3.62518 11.5778 3.62518 12.6857C3.62518 13.7936 3.83615 14.8906 4.24606 15.9141C4.65597 16.9377 5.25679 17.8677 6.0142 18.6511C6.77162 19.4344 7.6708 20.0558 8.66041 20.4798C9.65002 20.9038 10.7107 21.122 11.7818 21.122Z" fill="#394867"/>
</svg>
