<svg width="31" height="31" viewBox="0 0 31 31" fill="none" xmlns="http://www.w3.org/2000/svg">
<path d="M17.375 6.90314V21.1245C17.375 22.1617 16.5371 22.9996 15.5 22.9996C14.4629 22.9996 13.625 22.1617 13.625 21.1245V6.90314L9.32422 11.2041C8.5918 11.9366 7.40234 11.9366 6.66992 11.2041C5.9375 10.4717 5.9375 9.28217 6.66992 8.54971L14.1699 1.04934C14.9023 0.316886 16.0918 0.316886 16.8242 1.04934L24.3242 8.54971C25.0566 9.28217 25.0566 10.4717 24.3242 11.2041C23.5918 11.9366 22.4023 11.9366 21.6699 11.2041L17.375 6.90314ZM4.25 21.1245H11.75C11.75 23.193 13.4316 24.8747 15.5 24.8747C17.5684 24.8747 19.25 23.193 19.25 21.1245H26.75C28.8184 21.1245 30.5 22.8063 30.5 24.8747V26.7498C30.5 28.8183 28.8184 30.5 26.75 30.5H4.25C2.18164 30.5 0.5 28.8183 0.5 26.7498V24.8747C0.5 22.8063 2.18164 21.1245 4.25 21.1245ZM25.8125 27.2186C26.1855 27.2186 26.5431 27.0704 26.8069 26.8067C27.0706 26.543 27.2188 26.1853 27.2188 25.8123C27.2188 25.4393 27.0706 25.0816 26.8069 24.8179C26.5431 24.5541 26.1855 24.406 25.8125 24.406C25.4395 24.406 25.0819 24.5541 24.8181 24.8179C24.5544 25.0816 24.4062 25.4393 24.4062 25.8123C24.4062 26.1853 24.5544 26.543 24.8181 26.8067C25.0819 27.0704 25.4395 27.2186 25.8125 27.2186Z" fill="#394867"/>
</svg>
